<svg width="255" height="37" viewBox="0 0 255 37" fill="none" xmlns="http://www.w3.org/2000/svg">
<path d="M22.7825 12.7754H19.7394V20.7487C19.7394 21.9911 19.4328 23.1156 18.8194 24.1221C18.2061 25.1128 17.349 25.8913 16.2482 26.4574C15.1473 27.0236 13.8892 27.3067 12.4738 27.3067C11.027 27.3067 9.75313 27.0236 8.65228 26.4574C7.55143 25.8913 6.7022 25.1128 6.1046 24.1221C5.507 23.1313 5.20819 22.0069 5.20819 20.7487V12.7754H2.16513V10.8175H10.5159V12.7754H7.66152L7.63793 20.678C7.63793 21.5587 7.84237 22.3528 8.25126 23.0605C8.66015 23.7525 9.2263 24.2951 9.94971 24.6882C10.6889 25.0814 11.5302 25.278 12.4738 25.278C13.4017 25.278 14.2352 25.0814 14.9743 24.6882C15.7135 24.2951 16.2875 23.7446 16.6964 23.0369C17.1052 22.3292 17.3097 21.5351 17.3097 20.6544L17.2861 12.7754H14.4082V10.8175H22.7825V12.7754ZM44.6199 12.7754H41.6712V27.1415L40.4681 27.1651L29.1215 14.2616V25.0421H32.023V27H23.7666V25.0421H26.8097V12.7754H23.7666V10.8175H29.1215L39.4066 22.7775V12.7754H36.3635V10.8175H44.6199V12.7754ZM53.8311 10.8175C55.5138 10.8175 57.0629 11.1242 58.4782 11.7375C59.8936 12.3351 61.0181 13.2472 61.8516 14.4739C62.7008 15.6848 63.1254 17.1631 63.1254 18.9087C63.1254 20.6544 62.7008 22.1405 61.8516 23.3672C61.0181 24.5781 59.8936 25.4903 58.4782 26.1036C57.0629 26.7012 55.5138 27 53.8311 27H45.905V25.0421H48.948V12.7754H45.905V10.8175H53.8311ZM53.5952 25.0421C55.6082 25.0421 57.2752 24.5467 58.5962 23.5559C59.9172 22.5494 60.5777 21.0004 60.5777 18.9087C60.5777 16.8014 59.9172 15.2524 58.5962 14.2616C57.2752 13.2708 55.6082 12.7754 53.5952 12.7754H51.3778V25.0421H53.5952ZM79.0103 16.0072V12.7754H70.6124V17.9416H74.3395V15.7477H76.2267V21.9282H74.3395V19.7344H70.6124V25.0421H79.0103V21.8103H81.1805V27H65.1867V25.0421H68.2062V12.7754H65.1867V10.8175H81.1805V16.0072H79.0103ZM102.2 25.6318C101.21 26.7641 100.062 27.3303 98.7563 27.3303C97.3881 27.3303 96.2322 26.8349 95.2886 25.8441C94.3607 24.8533 93.6059 23.3279 93.024 21.2677L92.6466 20.0882H89.2732V25.0421H92.2455V27H83.8004V25.0656H86.8435V12.7754H83.8004V10.8175H93.1891C95.0291 10.8175 96.4838 11.2342 97.5532 12.0677C98.6226 12.9012 99.1573 14.0336 99.1573 15.4647C99.1573 16.6441 98.772 17.6428 98.0014 18.4605C97.2465 19.2626 96.1772 19.7658 94.7932 19.9703L95.2178 21.1262C95.7054 22.5101 96.2479 23.5166 96.8455 24.1457C97.4431 24.7747 98.1194 25.0892 98.8742 25.0892C99.346 25.0892 99.7471 24.9949 100.077 24.8062C100.408 24.6174 100.714 24.3658 100.997 24.0513L102.2 25.6318ZM89.2732 18.2482H93.2599C94.2664 18.2482 95.0999 18.0045 95.7604 17.517C96.4209 17.0137 96.7512 16.3296 96.7512 15.4647C96.7512 14.6312 96.4209 13.9785 95.7604 13.5067C95.1156 13.0192 94.2821 12.7754 93.2599 12.7754H89.2732V18.2482ZM118.971 23.1549C118.106 24.4759 117.029 25.4981 115.739 26.2215C114.465 26.945 112.995 27.3067 111.328 27.3067C109.692 27.3067 108.198 26.9371 106.846 26.198C105.493 25.4588 104.424 24.4523 103.637 23.1785C102.867 21.9046 102.482 20.4971 102.482 18.9559C102.482 17.3204 102.843 15.8578 103.567 14.5683C104.29 13.2787 105.265 12.2801 106.492 11.5724C107.719 10.8489 109.047 10.4872 110.478 10.4872C112.334 10.4872 113.875 11.0613 115.102 12.2093V10.8175H118.523V16.4554L115.998 16.6913C115.558 15.7477 114.929 14.9771 114.111 14.3795C113.294 13.7819 112.287 13.4831 111.092 13.4831C110.29 13.4831 109.535 13.7033 108.827 14.1436C108.12 14.5683 107.546 15.1894 107.105 16.0072C106.681 16.825 106.468 17.7922 106.468 18.9087C106.468 19.8838 106.681 20.7802 107.105 21.598C107.546 22.4 108.135 23.0369 108.874 23.5087C109.614 23.9805 110.431 24.2164 111.328 24.2164C112.523 24.2164 113.514 23.9648 114.3 23.4616C115.086 22.9426 115.825 22.172 116.517 21.1498L118.971 23.1549ZM140.016 13.8134H137.397V20.5836C137.397 21.8732 137.059 23.0291 136.383 24.0513C135.722 25.0735 134.802 25.8756 133.623 26.4574C132.459 27.0236 131.162 27.3067 129.73 27.3067C128.252 27.3067 126.931 27.0236 125.767 26.4574C124.604 25.8756 123.699 25.0814 123.055 24.0749C122.41 23.0527 122.087 21.8889 122.087 20.5836V13.8134H119.445V10.8175H128.221V13.8134H125.932L125.909 20.3477C125.909 21.4957 126.271 22.4315 126.994 23.1549C127.717 23.8626 128.63 24.2164 129.73 24.2164C130.454 24.2164 131.106 24.0513 131.688 23.721C132.286 23.3908 132.75 22.9347 133.08 22.3528C133.41 21.7552 133.576 21.0711 133.576 20.3005L133.528 13.8134H131.217V10.8175H140.016V13.8134ZM159.612 25.6318C159.156 26.135 158.645 26.5439 158.079 26.8585C157.529 27.173 156.837 27.3303 156.003 27.3303C154.493 27.3303 153.235 26.8113 152.229 25.7733C151.238 24.7197 150.491 23.0841 149.988 20.8667L149.917 20.56H147.417V24.0277H149.941V27H140.953V24.0041H143.595V13.8134H140.953V10.8175H150.648C152.598 10.8175 154.163 11.2421 155.343 12.0913C156.522 12.9248 157.112 14.1122 157.112 15.6534C157.112 16.88 156.774 17.8944 156.098 18.6964C155.437 19.4828 154.493 20.0253 153.267 20.3241L153.385 20.678C153.762 21.8575 154.187 22.6831 154.659 23.1549C155.146 23.611 155.673 23.839 156.239 23.839C156.585 23.839 156.884 23.7839 157.136 23.6739C157.387 23.548 157.631 23.3751 157.867 23.1549L159.612 25.6318ZM147.417 17.7529H150.766C151.427 17.7529 152.017 17.5877 152.536 17.2575C153.07 16.9272 153.338 16.3925 153.338 15.6534C153.338 14.9929 153.078 14.5211 152.559 14.238C152.056 13.9549 151.458 13.8134 150.766 13.8134H147.417V17.7529ZM178.433 25.6318C177.977 26.135 177.466 26.5439 176.9 26.8585C176.35 27.173 175.658 27.3303 174.824 27.3303C173.315 27.3303 172.056 26.8113 171.05 25.7733C170.059 24.7197 169.312 23.0841 168.809 20.8667L168.738 20.56H166.238V24.0277H168.762V27H159.774V24.0041H162.416V13.8134H159.774V10.8175H169.469C171.419 10.8175 172.984 11.2421 174.164 12.0913C175.343 12.9248 175.933 14.1122 175.933 15.6534C175.933 16.88 175.595 17.8944 174.919 18.6964C174.258 19.4828 173.315 20.0253 172.088 20.3241L172.206 20.678C172.583 21.8575 173.008 22.6831 173.48 23.1549C173.967 23.611 174.494 23.839 175.06 23.839C175.406 23.839 175.705 23.7839 175.957 23.6739C176.208 23.548 176.452 23.3751 176.688 23.1549L178.433 25.6318ZM166.238 17.7529H169.587C170.248 17.7529 170.838 17.5877 171.357 17.2575C171.891 16.9272 172.159 16.3925 172.159 15.6534C172.159 14.9929 171.899 14.5211 171.38 14.238C170.877 13.9549 170.279 13.8134 169.587 13.8134H166.238V17.7529ZM191.97 16.8329V13.8134H184.964V17.7529H187.441V15.8893H190.248V22.3057H187.441V20.4421H184.964V24.0041H191.97V20.9846H195.297V27H178.595V24.0041H181.214V13.8134H178.595V10.8175H195.297V16.8329H191.97ZM218.618 13.8134H216.118V27.1415L214.065 27.1651L203.851 15.9129V24.0041H206.493V27H197.623V24.0041H200.266V13.8134H197.623V10.8175H203.851L212.626 20.7487V13.8134H209.984V10.8175H218.618V13.8134ZM236.936 10.8175V17.0452H233.61V13.8134H230.166V24.0041H232.737V27H223.75V24.0041H226.344V13.8134H222.877V17.0452H219.551V10.8175H236.936ZM246.923 17.2103C248.999 17.8079 250.611 18.5235 251.759 19.357C252.907 20.1905 253.481 21.2992 253.481 22.6831C253.481 23.6424 253.237 24.468 252.749 25.16C252.262 25.852 251.593 26.3867 250.744 26.7641C249.895 27.1258 248.936 27.3067 247.866 27.3067C246.86 27.3067 245.893 27.1101 244.965 26.7169C244.037 26.3238 243.117 25.7655 242.205 25.0421V26.9764H238.879V21.079L241.238 20.961C242.055 21.9518 243.078 22.7617 244.304 23.3908C245.531 24.0041 246.632 24.3108 247.607 24.3108C248.189 24.3108 248.645 24.2086 248.975 24.0041C249.321 23.7997 249.494 23.493 249.494 23.0841C249.494 22.5966 249.109 22.1484 248.338 21.7395C247.568 21.3306 246.231 20.8667 244.328 20.3477C242.441 19.8287 241.065 19.1525 240.2 18.319C239.335 17.4698 238.902 16.4082 238.902 15.1344C238.902 14.2065 239.162 13.3966 239.681 12.7047C240.2 11.997 240.884 11.4544 241.733 11.077C242.582 10.6838 243.486 10.4872 244.446 10.4872C246.38 10.4872 248 11.0927 249.305 12.3036V10.8175H252.631V16.5498L250.39 16.6677C249.871 15.6612 249.148 14.8828 248.22 14.3324C247.308 13.7662 246.372 13.4831 245.413 13.4831C244.658 13.4831 244.045 13.6168 243.573 13.8842C243.117 14.1515 242.889 14.5132 242.889 14.9693C242.889 15.4096 243.18 15.7949 243.762 16.1252C244.344 16.4397 245.397 16.8014 246.923 17.2103Z" fill="#FF0000"/>
<path d="M2.00049 33.4836C2.00049 33.4836 4.27822 31.9573 6.43539 31.9603C8.59256 31.9632 10.8868 33.4793 10.8868 33.4793C10.8868 33.4793 13.2773 35.0031 15.3794 35.0041C17.4814 35.0051 19.883 33.4793 19.883 33.4793" stroke="#FF0000" stroke-width="2.66335" stroke-linecap="round" stroke-linejoin="round"/>
<path d="M19.8828 33.4836C19.8828 33.4836 22.1605 31.9573 24.3177 31.9603C26.4749 31.9632 28.7691 33.4793 28.7691 33.4793C28.7691 33.4793 31.1597 35.0031 33.2617 35.0041C35.3637 35.0051 37.7653 33.4793 37.7653 33.4793" stroke="#FF0000" stroke-width="2.66335" stroke-linecap="round" stroke-linejoin="round"/>
<path d="M37.7656 33.4836C37.7656 33.4836 40.0434 31.9573 42.2005 31.9603C44.3577 31.9632 46.6519 33.4793 46.6519 33.4793C46.6519 33.4793 49.0425 35.0031 51.1445 35.0041C53.2465 35.0051 55.6481 33.4793 55.6481 33.4793" stroke="#FF0000" stroke-width="2.66335" stroke-linecap="round" stroke-linejoin="round"/>
<path d="M55.6479 33.4836C55.6479 33.4836 57.9257 31.9573 60.0828 31.9603C62.24 31.9632 64.5342 33.4793 64.5342 33.4793C64.5342 33.4793 66.9248 35.0031 69.0268 35.0041C71.1289 35.0051 73.5304 33.4793 73.5304 33.4793" stroke="#FF0000" stroke-width="2.66335" stroke-linecap="round" stroke-linejoin="round"/>
<path d="M73.5303 33.4836C73.5303 33.4836 75.808 31.9573 77.9652 31.9603C80.1223 31.9632 82.4166 33.4793 82.4166 33.4793C82.4166 33.4793 84.8071 35.0031 86.9091 35.0041C89.0112 35.0051 91.4128 33.4793 91.4128 33.4793" stroke="#FF0000" stroke-width="2.66335" stroke-linecap="round" stroke-linejoin="round"/>
<path d="M91.4126 33.4837C91.4126 33.4837 93.6903 31.9574 95.8475 31.9603C98.0047 31.9633 100.299 33.4793 100.299 33.4793C100.299 33.4793 102.689 35.0031 104.791 35.0042C106.894 35.0052 109.295 33.4793 109.295 33.4793" stroke="#FF0000" stroke-width="2.66335" stroke-linecap="round" stroke-linejoin="round"/>
<path d="M109.295 33.4837C109.295 33.4837 111.573 31.9574 113.73 31.9603C115.887 31.9633 118.182 33.4793 118.182 33.4793C118.182 33.4793 120.572 35.0031 122.674 35.0042C124.776 35.0052 127.178 33.4793 127.178 33.4793" stroke="#FF0000" stroke-width="2.66335" stroke-linecap="round" stroke-linejoin="round"/>
<path d="M127.178 33.4836C127.178 33.4836 129.455 31.9573 131.613 31.9603C133.77 31.9632 136.064 33.4793 136.064 33.4793C136.064 33.4793 138.455 35.0031 140.557 35.0041C142.659 35.0051 145.06 33.4793 145.06 33.4793" stroke="#FF0000" stroke-width="2.66335" stroke-linecap="round" stroke-linejoin="round"/>
<path d="M145.061 33.4836C145.061 33.4836 147.338 31.9573 149.495 31.9603C151.653 31.9632 153.947 33.4793 153.947 33.4793C153.947 33.4793 156.337 35.0031 158.439 35.0041C160.541 35.0051 162.943 33.4793 162.943 33.4793" stroke="#FF0000" stroke-width="2.66335" stroke-linecap="round" stroke-linejoin="round"/>
<path d="M162.943 33.4836C162.943 33.4836 165.221 31.9573 167.378 31.9603C169.535 31.9632 171.829 33.4793 171.829 33.4793C171.829 33.4793 174.22 35.0031 176.322 35.0041C178.424 35.0051 180.825 33.4793 180.825 33.4793" stroke="#FF0000" stroke-width="2.66335" stroke-linecap="round" stroke-linejoin="round"/>
<path d="M180.825 33.4837C180.825 33.4837 183.103 31.9574 185.26 31.9603C187.417 31.9633 189.711 33.4793 189.711 33.4793C189.711 33.4793 192.102 35.0031 194.204 35.0042C196.306 35.0052 198.708 33.4793 198.708 33.4793" stroke="#FF0000" stroke-width="2.66335" stroke-linecap="round" stroke-linejoin="round"/>
<path d="M198.708 33.4836C198.708 33.4836 200.986 31.9573 203.143 31.9603C205.3 31.9632 207.594 33.4793 207.594 33.4793C207.594 33.4793 209.985 35.0031 212.087 35.0041C214.189 35.0051 216.59 33.4793 216.59 33.4793" stroke="#FF0000" stroke-width="2.66335" stroke-linecap="round" stroke-linejoin="round"/>
<path d="M216.59 33.4838C216.59 33.4838 218.868 31.9575 221.025 31.9604C223.182 31.9633 225.477 33.4794 225.477 33.4794C225.477 33.4794 227.867 35.0032 229.969 35.0042C232.071 35.0052 234.473 33.4794 234.473 33.4794" stroke="#FF0000" stroke-width="2.66335" stroke-linecap="round" stroke-linejoin="round"/>
<path d="M234.473 33.4836C234.473 33.4836 236.75 31.9573 238.908 31.9603C241.065 31.9632 243.359 33.4793 243.359 33.4793C243.359 33.4793 245.75 35.0031 247.852 35.0041C249.954 35.0051 252.355 33.4793 252.355 33.4793" stroke="#FF0000" stroke-width="2.66335" stroke-linecap="round" stroke-linejoin="round"/>
</svg>
