<svg width="193" height="336" viewBox="0 0 193 336" fill="none" xmlns="http://www.w3.org/2000/svg">
<path d="M191.14 122.697H167.053V184.976C167.053 196.839 163.943 207.472 157.722 216.875C151.646 226.278 143.183 233.656 132.333 239.009C121.628 244.217 109.693 246.821 96.528 246.821C82.9293 246.821 70.7773 244.217 60.072 239.009C49.3666 233.656 41.0483 226.351 35.117 217.092C29.1856 207.689 26.22 196.983 26.22 184.976V122.697H1.91597V95.138H82.64V122.697H61.591L61.374 182.806C61.374 193.367 64.7013 201.974 71.356 208.629C78.0106 215.139 86.4013 218.394 96.528 218.394C103.183 218.394 109.186 216.875 114.539 213.837C120.036 210.799 124.304 206.604 127.342 201.251C130.38 195.754 131.899 189.461 131.899 182.372L131.465 122.697H110.199V95.138H191.14V122.697Z" fill="#FF0000" fill-opacity="0.1"/>
<path d="M13.999 308.013C13.999 308.013 34.9517 293.973 54.7954 294C74.6391 294.027 95.7435 307.973 95.7435 307.973C95.7435 307.973 117.734 321.991 137.071 322C156.407 322.009 178.499 307.973 178.499 307.973" stroke="#FF0000" stroke-opacity="0.1" stroke-width="24.5" stroke-linecap="round" stroke-linejoin="round"/>
</svg>
